# xmcd
#
# Track frame offsets: 
#        150
#        22218
#        44665
#        89423
#        112053
#        134210
#
# Disc length: 2082 seconds
#
# Revision: 0
# Processed by: cddbd v1.5.2PL0 Copyright (c) Steve Scherf et al.
# Submitted via: ExactAudioCopyFreeDBPlugin 1.0
#
DISCID=5e082006
DTITLE=Dre Day (Promo Single) - Dr. Dre Feat. Snoop Doggy Dogg
DYEAR=1992
DGENRE=Rap
TTITLE0=Dre Day Feat. Snoop Doggy Dogg (Radio Version)
TTITLE1=Dre Day Feat. Snoop Doggy Dogg (UK Radio Flavour)
TTITLE2=Dre Day Feat. Snoop Doggy Dogg (Extended Club Mix)
TTITLE3=Dre Day Feat. Snoop Doggy Dogg (UK Flavour)
TTITLE4=Dre Day Feat. Snoop Doggy Dogg (Instrumental)
TTITLE5=Dre Day Feat. Snoop Doggy Dogg (LP Version)
EXTD=
EXTT0=
EXTT1=
EXTT2=
EXTT3=
EXTT4=
EXTT5=
PLAYORDER=
